{
    "asset" : {
        "generator" : "Khronos glTF Blender I/O v1.6.16",
        "version" : "2.0"
    },
    "scene" : 0,
    "scenes" : [
        {
            "name" : "Scene",
            "nodes" : [
                0
            ]
        }
    ],
    "nodes" : [
        {
            "mesh" : 0,
            "name" : "baked tree",
            "translation" : [
                -0.2913866341114044,
                3.4208762645721436,
                -0.217002734541893
            ]
        }
    ],
    "animations" : [
        {
            "channels" : [
                {
                    "sampler" : 0,
                    "target" : {
                        "node" : 0,
                        "path" : "rotation"
                    }
                }
            ],
            "name" : "baked treeAction",
            "samplers" : [
                {
                    "input" : 3,
                    "interpolation" : "LINEAR",
                    "output" : 4
                }
            ]
        }
    ],
    "meshes" : [
        {
            "name" : "Circle.002",
            "primitives" : [
                {
                    "attributes" : {
                        "POSITION" : 0,
                        "TEXCOORD_0" : 1
                    },
                    "indices" : 2
                }
            ]
        }
    ],
    "accessors" : [
        {
            "bufferView" : 0,
            "componentType" : 5126,
            "count" : 13730,
            "max" : [
                1.6002793312072754,
                0.5761324167251587,
                1.5758696794509888
            ],
            "min" : [
                -1.6012769937515259,
                -3.365185022354126,
                -1.7147566080093384
            ],
            "type" : "VEC3"
        },
        {
            "bufferView" : 1,
            "componentType" : 5126,
            "count" : 13730,
            "type" : "VEC2"
        },
        {
            "bufferView" : 2,
            "componentType" : 5123,
            "count" : 51666,
            "type" : "SCALAR"
        },
        {
            "bufferView" : 3,
            "componentType" : 5126,
            "count" : 197,
            "max" : [
                11.458333333333334
            ],
            "min" : [
                3.2916666666666665
            ],
            "type" : "SCALAR"
        },
        {
            "bufferView" : 4,
            "componentType" : 5126,
            "count" : 197,
            "type" : "VEC4"
        }
    ],
    "bufferViews" : [
        {
            "buffer" : 0,
            "byteLength" : 164760,
            "byteOffset" : 0
        },
        {
            "buffer" : 0,
            "byteLength" : 109840,
            "byteOffset" : 164760
        },
        {
            "buffer" : 0,
            "byteLength" : 103332,
            "byteOffset" : 274600
        },
        {
            "buffer" : 0,
            "byteLength" : 788,
            "byteOffset" : 377932
        },
        {
            "buffer" : 0,
            "byteLength" : 3152,
            "byteOffset" : 378720
        }
    ],
    "buffers" : [
        {
            "byteLength" : 381872,
            "uri" : "data:application/octet-stream;base64,"
        }
    ]
}
