{
    "asset" : {
        "generator" : "Khronos glTF Blender I/O v1.6.16",
        "version" : "2.0"
    },
    "scene" : 0,
    "scenes" : [
        {
            "name" : "Scene",
            "nodes" : [
                0
            ]
        }
    ],
    "nodes" : [
        {
            "mesh" : 0,
            "name" : "Cube.028",
            "translation" : [
                0,
                -0.012082105502486229,
                0
            ]
        }
    ],
    "animations" : [
        {
            "channels" : [
                {
                    "sampler" : 0,
                    "target" : {
                        "node" : 0,
                        "path" : "weights"
                    }
                }
            ],
            "name" : "KeyAction",
            "samplers" : [
                {
                    "input" : 5,
                    "interpolation" : "LINEAR",
                    "output" : 6
                }
            ]
        },
        {
            "channels" : [
                {
                    "sampler" : 0,
                    "target" : {
                        "node" : 0,
                        "path" : "translation"
                    }
                },
                {
                    "sampler" : 1,
                    "target" : {
                        "node" : 0,
                        "path" : "rotation"
                    }
                },
                {
                    "sampler" : 2,
                    "target" : {
                        "node" : 0,
                        "path" : "scale"
                    }
                }
            ],
            "name" : "openbox",
            "samplers" : [
                {
                    "input" : 7,
                    "interpolation" : "LINEAR",
                    "output" : 8
                },
                {
                    "input" : 7,
                    "interpolation" : "LINEAR",
                    "output" : 9
                },
                {
                    "input" : 7,
                    "interpolation" : "LINEAR",
                    "output" : 10
                }
            ]
        }
    ],
    "meshes" : [
        {
            "extras" : {
                "targetNames" : [
                    "Key 3",
                    "Key 4"
                ]
            },
            "name" : "Cube.118",
            "primitives" : [
                {
                    "attributes" : {
                        "POSITION" : 0,
                        "TEXCOORD_0" : 1
                    },
                    "indices" : 2,
                    "targets" : [
                        {
                            "POSITION" : 3
                        },
                        {
                            "POSITION" : 4
                        }
                    ]
                }
            ],
            "weights" : [
                0,
                0
            ]
        }
    ],
    "accessors" : [
        {
            "bufferView" : 0,
            "componentType" : 5126,
            "count" : 282,
            "max" : [
                3.788438320159912,
                6.2437920570373535,
                3.591334104537964
            ],
            "min" : [
                -3.4892172813415527,
                -0.12368666380643845,
                -3.684544563293457
            ],
            "type" : "VEC3"
        },
        {
            "bufferView" : 1,
            "componentType" : 5126,
            "count" : 282,
            "type" : "VEC2"
        },
        {
            "bufferView" : 2,
            "componentType" : 5123,
            "count" : 996,
            "type" : "SCALAR"
        },
        {
            "bufferView" : 3,
            "componentType" : 5126,
            "count" : 282,
            "max" : [
                3.387320041656494,
                2.70184326171875,
                3.0872130393981934
            ],
            "min" : [
                -0.49512338638305664,
                -1.0199565887451172,
                -3.0690255165100098
            ],
            "type" : "VEC3"
        },
        {
            "bufferView" : 4,
            "componentType" : 5126,
            "count" : 282,
            "max" : [
                5.804103374481201,
                5.369128227233887,
                5.782991409301758
            ],
            "min" : [
                -9.222833633422852,
                -4.094514846801758,
                -6.031994819641113
            ],
            "type" : "VEC3"
        },
        {
            "bufferView" : 5,
            "componentType" : 5126,
            "count" : 50,
            "max" : [
                2.0833333333333335
            ],
            "min" : [
                0.041666666666666664
            ],
            "type" : "SCALAR"
        },
        {
            "bufferView" : 6,
            "componentType" : 5126,
            "count" : 100,
            "type" : "SCALAR"
        },
        {
            "bufferView" : 7,
            "componentType" : 5126,
            "count" : 51,
            "max" : [
                2.0833333333333335
            ],
            "min" : [
                0
            ],
            "type" : "SCALAR"
        },
        {
            "bufferView" : 8,
            "componentType" : 5126,
            "count" : 51,
            "type" : "VEC3"
        },
        {
            "bufferView" : 9,
            "componentType" : 5126,
            "count" : 51,
            "type" : "VEC4"
        },
        {
            "bufferView" : 10,
            "componentType" : 5126,
            "count" : 51,
            "type" : "VEC3"
        }
    ],
    "bufferViews" : [
        {
            "buffer" : 0,
            "byteLength" : 3384,
            "byteOffset" : 0
        },
        {
            "buffer" : 0,
            "byteLength" : 2256,
            "byteOffset" : 3384
        },
        {
            "buffer" : 0,
            "byteLength" : 1992,
            "byteOffset" : 5640
        },
        {
            "buffer" : 0,
            "byteLength" : 3384,
            "byteOffset" : 7632
        },
        {
            "buffer" : 0,
            "byteLength" : 3384,
            "byteOffset" : 11016
        },
        {
            "buffer" : 0,
            "byteLength" : 200,
            "byteOffset" : 14400
        },
        {
            "buffer" : 0,
            "byteLength" : 400,
            "byteOffset" : 14600
        },
        {
            "buffer" : 0,
            "byteLength" : 204,
            "byteOffset" : 15000
        },
        {
            "buffer" : 0,
            "byteLength" : 612,
            "byteOffset" : 15204
        },
        {
            "buffer" : 0,
            "byteLength" : 816,
            "byteOffset" : 15816
        },
        {
            "buffer" : 0,
            "byteLength" : 612,
            "byteOffset" : 16632
        }
    ],
    "buffers" : [
        {
            "byteLength" : 17244,
            "uri" : "data:application/octet-stream;base64,"
        }
    ]
}
