{
    "asset" : {
        "generator" : "Khronos glTF Blender I/O v1.6.16",
        "version" : "2.0"
    },
    "scene" : 0,
    "scenes" : [
        {
            "name" : "Scene",
            "nodes" : [
                0
            ]
        }
    ],
    "nodes" : [
        {
            "mesh" : 0,
            "name" : "Cube.010"
        }
    ],
    "meshes" : [
        {
            "name" : "Cube.040",
            "primitives" : [
                {
                    "attributes" : {
                        "POSITION" : 0,
                        "TEXCOORD_0" : 1
                    },
                    "indices" : 2
                }
            ]
        }
    ],
    "accessors" : [
        {
            "bufferView" : 0,
            "componentType" : 5126,
            "count" : 10290,
            "max" : [
                2.9679880142211914,
                1.6810224056243896,
                2.9486403465270996
            ],
            "min" : [
                -3.5916194915771484,
                -0.032231129705905914,
                -3.3131797313690186
            ],
            "type" : "VEC3"
        },
        {
            "bufferView" : 1,
            "componentType" : 5126,
            "count" : 10290,
            "type" : "VEC2"
        },
        {
            "bufferView" : 2,
            "componentType" : 5123,
            "count" : 39144,
            "type" : "SCALAR"
        }
    ],
    "bufferViews" : [
        {
            "buffer" : 0,
            "byteLength" : 123480,
            "byteOffset" : 0
        },
        {
            "buffer" : 0,
            "byteLength" : 82320,
            "byteOffset" : 123480
        },
        {
            "buffer" : 0,
            "byteLength" : 78288,
            "byteOffset" : 205800
        }
    ],
    "buffers" : [
        {
            "byteLength" : 284088,
            "uri" : "data:application/octet-stream;base64,"
        }
    ]
}
